<?xml version="1.0" encoding="UTF-8"?>
<svg width="75px" height="75px" viewBox="0 0 75 75" version="1.1" xmlns="http://www.w3.org/2000/svg" xmlns:xlink="http://www.w3.org/1999/xlink">
    <defs></defs>
    <g stroke="none" stroke-width="1" fill="none" fill-rule="evenodd">
        <g>
            <path d="M37.044,0 C16.5851637,-3.99680289e-15 2.66453526e-15,16.5851637 0,37.044 C-2.22044605e-15,57.5028363 16.5851637,74.088 37.044,74.088 C57.5028363,74.088 74.088,57.5028363 74.088,37.044 C74.088,16.5851637 57.5028363,7.54951657e-15 37.044,0 Z" fill="#336BA3"></path>
            <path d="M26.132,49.044 C26.1707219,43.3552757 22.8166529,38.1904498 17.604,35.912 L21.039,28.206 C29.2107573,31.9369162 34.4838528,40.061187 34.564,49.044 L26.132,49.044 Z" fill="#FFFFFF"></path>
            <path d="M45.044,49.075 L37.044,49.075 L37.044,49.065 C36.9582514,41.7491879 33.6685492,34.8389856 28.044,30.16 L33.409,23.735 C40.8279649,30.0518821 45.0848121,39.3181623 45.044,49.062 L45.044,49.075 L45.044,49.075 Z" fill="#FFFFFF"></path>
            <path d="M55.044,49.044 L46.978,49.044 C47.0224714,41.5574034 44.6363031,34.2585356 40.178,28.244 L46.8,23.279 C52.2300502,30.7709457 55.1190441,39.8044834 55.044,49.057 L55.044,49.044 L55.044,49.044 Z" fill="#FFFFFF"></path>
        </g>
    </g>
</svg>
